<?xml version="1.0" standalone="no"?>
<!DOCTYPE svg PUBLIC "-//W3C//DTD SVG 20010904//EN"
 "http://www.w3.org/TR/2001/REC-SVG-20010904/DTD/svg10.dtd">
<svg version="1.0" xmlns="http://www.w3.org/2000/svg"
 width="210.000000pt" height="47.000000pt" viewBox="0 0 210.000000 47.000000"
 preserveAspectRatio="xMidYMid meet">

<g transform="translate(0.000000,47.000000) scale(0.100000,-0.100000)"
fill="#000000" stroke="none">
<path d="M210 438 c0 -38 43 -88 76 -88 20 0 23 -6 27 -52 3 -43 4 -38 5 24
l2 77 -47 3 c-47 3 -48 4 -48 36 0 17 -3 32 -7 32 -5 0 -8 -14 -8 -32z"/>
<path d="M378 334 c-3 -135 -3 -136 -32 -160 -23 -21 -37 -24 -80 -22 -47 3
-51 5 -54 30 -2 19 2 27 15 30 15 3 15 5 -4 10 -21 6 -23 3 -23 -32 0 -55 43
-90 112 -90 44 0 54 4 84 34 20 20 34 44 33 57 l0 24 -10 -24 c-16 -40 -30
-53 -45 -41 -10 9 -10 18 2 45 9 21 14 69 14 126 0 80 2 90 15 79 8 -7 13 -15
11 -19 -3 -4 -1 -13 3 -19 4 -8 8 5 9 29 2 40 -18 79 -39 79 -4 0 -9 -61 -11
-136z"/>
<path d="M559 444 c-5 -15 -8 -29 -5 -31 2 -2 8 10 14 26 13 38 5 41 -9 5z"/>
<path d="M653 464 c4 -4 17 -12 29 -18 13 -6 33 -31 45 -56 25 -50 31 -48 9 4
-13 32 -59 76 -79 76 -6 0 -7 -3 -4 -6z"/>
<path d="M852 309 c-2 -161 -1 -166 21 -187 15 -14 36 -22 60 -22 l37 0 1 83
c0 80 0 81 17 58 49 -71 45 -54 -5 23 l-58 89 -5 -99 c-5 -99 -5 -99 -32 -102
l-27 -3 -4 163 -3 163 -2 -166z m108 -131 c0 -53 -2 -59 -15 -48 -10 9 -15 31
-15 72 0 53 2 59 15 48 10 -9 15 -31 15 -72z"/>
<path d="M936 443 c9 -16 41 -64 70 -107 l53 -79 3 107 c2 58 0 106 -4 106 -5
0 -8 -26 -8 -57 l0 -58 -24 36 c-21 31 -84 79 -103 79 -3 0 3 -12 13 -27z m87
-61 c14 -22 25 -49 24 -61 -1 -12 -2 -21 -4 -21 -1 0 -25 34 -53 76 -49 71
-50 74 -22 60 15 -8 40 -33 55 -54z"/>
<path d="M1120 310 l0 -160 -28 0 c-15 0 -35 6 -42 13 -8 6 1 -5 19 -25 29
-31 42 -38 73 -38 l38 0 0 163 c0 158 -1 164 -23 185 -13 12 -26 22 -30 22 -4
0 -7 -72 -7 -160z m49 -68 l2 -136 -21 19 c-18 16 -20 30 -20 153 0 132 0 135
19 118 17 -15 19 -33 20 -154z"/>
<path d="M1222 362 c-2 -131 6 -158 67 -217 37 -36 46 -39 103 -43 49 -2 70 1
94 16 50 32 64 75 64 199 0 102 -2 111 -23 131 -13 12 -25 22 -28 22 -2 0 -4
-53 -4 -119 0 -130 -10 -163 -57 -187 -60 -31 -162 -10 -190 39 -7 13 -15 75
-19 147 l-5 125 -2 -113z m315 -61 c-2 -101 -5 -122 -21 -140 -14 -16 -22 -18
-32 -10 -11 9 -11 16 0 38 19 38 25 67 27 151 2 80 5 94 19 85 5 -3 8 -59 7
-124z"/>
<path d="M1290 368 c0 -118 8 -129 11 -14 2 64 4 76 14 63 7 -9 15 -14 18 -10
4 3 7 -38 7 -93 l-1 -99 -19 24 c-11 13 -20 19 -20 13 0 -14 29 -42 43 -42 9
0 11 30 9 107 -3 93 -6 111 -24 131 -12 12 -25 22 -30 22 -4 0 -8 -46 -8 -102z"/>
<path d="M1773 463 c12 -3 17 -15 17 -39 0 -31 -2 -34 -19 -24 -47 25 -122 3
-108 -32 4 -8 6 -7 6 5 1 20 12 22 29 5 17 -17 15 -28 -5 -23 -10 3 -2 -2 17
-10 67 -29 85 -41 96 -63 6 -13 15 -22 20 -21 5 1 15 -9 21 -22 9 -16 13 -19
13 -8 0 20 -93 109 -115 109 -8 0 -15 5 -15 11 0 12 48 8 98 -7 20 -6 22 -3
22 34 0 33 -6 45 -31 66 -17 14 -38 25 -47 25 -15 -1 -15 -2 1 -6z m67 -86 c0
-29 0 -30 -20 -12 -12 10 -20 31 -20 48 0 29 0 30 20 12 12 -10 20 -31 20 -48z"/>
<path d="M1611 436 c-13 -14 -21 -31 -18 -38 4 -10 6 -10 6 1 1 8 11 25 23 38
12 13 19 23 16 23 -2 0 -15 -11 -27 -24z"/>
<path d="M676 420 c3 -14 11 -32 16 -40 6 -10 7 -7 2 10 -3 14 -11 32 -16 40
-6 10 -7 7 -2 -10z"/>
<path d="M531 369 c-6 -18 -9 -34 -7 -36 2 -2 9 10 15 28 6 18 9 34 7 36 -2 2
-9 -10 -15 -28z"/>
<path d="M591 342 c-11 -33 -21 -62 -21 -66 0 -3 20 -6 45 -6 29 0 45 4 45 13
0 14 -33 103 -41 112 -4 3 -16 -21 -28 -53z m55 -59 c-10 -10 -19 5 -10 18 6
11 8 11 12 0 2 -7 1 -15 -2 -18z"/>
<path d="M706 340 c3 -14 11 -32 16 -40 6 -10 7 -7 2 10 -3 14 -11 32 -16 40
-6 10 -7 7 -2 -10z"/>
<path d="M1591 350 c-1 -24 59 -91 98 -108 l36 -16 -40 -7 -40 -6 36 -2 c19 0
44 5 54 13 27 19 8 40 -55 61 -47 16 -72 35 -83 65 -5 13 -6 13 -6 0z"/>
<path d="M756 320 c4 -14 13 -38 20 -55 11 -24 13 -25 8 -5 -4 14 -13 39 -20
55 -11 24 -13 25 -8 5z"/>
<path d="M501 289 c-6 -18 -9 -34 -7 -36 2 -2 9 10 15 28 6 18 9 34 7 36 -2 2
-9 -10 -15 -28z"/>
<path d="M736 260 c4 -14 13 -38 20 -55 11 -24 13 -25 8 -5 -4 14 -13 39 -20
55 -11 24 -13 25 -8 5z"/>
<path d="M1421 263 c0 -12 -11 -29 -23 -37 -12 -9 -18 -16 -12 -16 19 0 46 38
41 57 -4 15 -5 14 -6 -4z"/>
<path d="M1590 209 c0 -37 5 -50 31 -75 28 -27 35 -29 111 -29 75 0 81 2 104
28 13 15 23 38 23 50 -2 22 -2 22 -6 1 -2 -12 -16 -32 -31 -45 -15 -13 -24
-20 -20 -15 4 5 0 15 -10 23 -9 8 -11 11 -3 7 9 -4 12 -3 7 4 -3 6 -2 13 4 17
5 3 10 11 10 17 0 6 -11 1 -25 -12 -29 -27 -113 -38 -158 -21 -25 10 -28 16
-26 46 2 18 0 37 -4 41 -4 4 -7 -13 -7 -37z"/>
<path d="M300 232 c0 -6 -8 -13 -17 -15 -16 -4 -16 -5 -1 -6 18 -1 34 16 24
26 -3 4 -6 1 -6 -5z"/>
<path d="M471 209 c-6 -18 -9 -34 -7 -36 2 -2 9 10 15 28 6 18 9 34 7 36 -2 2
-9 -10 -15 -28z"/>
<path d="M1811 224 c0 -11 3 -14 6 -6 3 7 2 16 -1 19 -3 4 -6 -2 -5 -13z"/>
<path d="M796 210 c3 -14 11 -32 16 -40 6 -10 7 -7 2 10 -3 14 -11 32 -16 40
-6 10 -7 7 -2 -10z"/>
<path d="M540 184 c-12 -35 -14 -36 -51 -31 -45 6 -48 -1 -16 -31 15 -14 36
-22 59 -22 31 0 38 4 47 30 9 28 13 30 60 30 41 0 55 -5 83 -30 25 -24 42 -30
75 -30 44 0 53 11 32 40 -9 13 -10 12 -5 -2 8 -26 -10 -22 -33 8 -12 15 -21
22 -21 15 0 -6 -14 -11 -31 -11 -25 0 -32 6 -45 35 -14 35 -15 35 -78 35 l-64
0 -12 -36z m30 -47 c0 -20 -1 -20 -16 -5 -9 9 -13 21 -9 27 10 16 25 3 25 -22z"/>
</g>
</svg>
